<svg width="40" height="40" viewBox="0 0 40 40" fill="none" xmlns="http://www.w3.org/2000/svg">
<circle cx="20" cy="20" r="20" fill="#3F51B5" fill-opacity="0.1"/>
<path fill-rule="evenodd" clip-rule="evenodd" d="M15 10.0007H25C26.654 10.0007 28 11.3467 28 13.0007V27.0007C28 28.6547 26.654 30.0007 25 30.0007H15C13.346 30.0007 12 28.6547 12 27.0007V13.0007C12 11.3467 13.346 10.0007 15 10.0007ZM22.5 16.0007H17.5C16.947 16.0007 16.5 15.5537 16.5 15.0007C16.5 14.4477 16.947 14.0007 17.5 14.0007H22.5C23.053 14.0007 23.5 14.4477 23.5 15.0007C23.5 15.5537 23.053 16.0007 22.5 16.0007ZM20 26.0007C19.172 26.0007 18.5 25.3287 18.5 24.5007C18.5 23.6727 19.172 23.0007 20 23.0007C20.828 23.0007 21.5 23.6727 21.5 24.5007C21.5 25.3287 20.828 26.0007 20 26.0007Z" fill="#3F51B5"/>
<mask id="mask0_161_657" style="mask-type:alpha" maskUnits="userSpaceOnUse" x="12" y="10" width="16" height="21">
<path fill-rule="evenodd" clip-rule="evenodd" d="M15 10.0007H25C26.654 10.0007 28 11.3467 28 13.0007V27.0007C28 28.6547 26.654 30.0007 25 30.0007H15C13.346 30.0007 12 28.6547 12 27.0007V13.0007C12 11.3467 13.346 10.0007 15 10.0007ZM22.5 16.0007H17.5C16.947 16.0007 16.5 15.5537 16.5 15.0007C16.5 14.4477 16.947 14.0007 17.5 14.0007H22.5C23.053 14.0007 23.5 14.4477 23.5 15.0007C23.5 15.5537 23.053 16.0007 22.5 16.0007ZM20 26.0007C19.172 26.0007 18.5 25.3287 18.5 24.5007C18.5 23.6727 19.172 23.0007 20 23.0007C20.828 23.0007 21.5 23.6727 21.5 24.5007C21.5 25.3287 20.828 26.0007 20 26.0007Z" fill="white"/>
</mask>
<g mask="url(#mask0_161_657)">
</g>
</svg>
