<svg width="100" height="100" viewBox="0 0 100 100" fill="none" xmlns="http://www.w3.org/2000/svg">
<g opacity="0.33">
<path opacity="0.5969" d="M23.9913 25.1717C23.0229 25.1717 22.2377 24.9322 22.2377 24.6367C22.2377 24.3412 23.0229 24.1017 23.9913 24.1017C24.9598 24.1017 25.745 24.3412 25.745 24.6367C25.745 24.9322 24.9598 25.1717 23.9913 25.1717Z" fill="#0E47FE"/>
<path opacity="0.5765" d="M25.2397 24.7259C24.6155 24.9636 21.6136 20.5945 21.1677 19.4353C20.7219 18.2761 21.1975 16.9981 22.208 16.6117C23.2186 16.2253 24.3777 16.8495 24.8236 18.0086C25.2694 19.1678 25.8639 24.4881 25.2397 24.7259Z" fill="url(#paint0_linear_62_48)"/>
<path d="M25.2397 24.7556C24.4372 24.5475 24.5561 18.395 24.9425 17.0278C25.3289 15.6606 26.6664 14.7392 27.9147 15.0661C29.163 15.3931 29.8466 16.79 29.4602 18.187C29.0739 19.5839 26.0422 24.9636 25.2397 24.7556Z" fill="url(#paint1_linear_62_48)"/>
</g>
<path opacity="0.28" d="M66.3759 46C66.2222 46 66.0686 46 65.915 45.963C65.7229 46 65.5309 46 65.3388 46C62.3814 46 60 43.7037 60 40.8148C60 37.9259 62.3814 35.6667 65.3388 35.6667C65.6845 35.6667 66.0302 35.7037 66.3375 35.7407C67.5665 33.5185 69.9863 32 72.7901 32C76.7847 32 80.0494 35.1481 80.0494 39H84.3896C86.3868 39 88 40.5556 88 42.4815C88 44.4074 86.3868 46 84.3896 46H66.3759Z" fill="url(#paint2_linear_62_48)"/>
<path opacity="0.28" d="M16.1879 83C16.1111 83 16.0343 83 15.9575 82.9815C15.8615 83 15.7654 83 15.6694 83C14.1907 83 13 81.8519 13 80.4074C13 78.963 14.1907 77.8333 15.6694 77.8333C15.8423 77.8333 16.0151 77.8519 16.1687 77.8704C16.7833 76.7593 17.9932 76 19.3951 76C21.3923 76 23.0247 77.5741 23.0247 79.5H25.1948C26.1934 79.5 27 80.2778 27 81.2407C27 82.2037 26.1934 83 25.1948 83H16.1879Z" fill="url(#paint3_linear_62_48)"/>
<g opacity="0.3">
<path d="M54.5053 62.1639C55.054 61.6151 55.054 60.7255 54.5053 60.1767C53.9566 59.628 53.0669 59.628 52.5181 60.1767L30.3282 82.3666C29.7795 82.9154 29.7795 83.8051 30.3282 84.3538C30.8769 84.9025 31.7666 84.9025 32.3154 84.3538L54.5053 62.1639Z" fill="url(#paint4_linear_62_48)"/>
<path d="M27.345 39.5918C26.7963 40.1405 26.7963 41.0302 27.345 41.5789C27.8938 42.1277 28.7834 42.1277 29.3322 41.5789L39.9304 30.9807C40.4791 30.432 40.4791 29.5423 39.9304 28.9936C39.3816 28.4448 38.4919 28.4448 37.9432 28.9936L27.345 39.5918Z" fill="url(#paint5_linear_62_48)"/>
<path fill-rule="evenodd" clip-rule="evenodd" d="M19.857 36.3508H33.1875H46.5179C47.8191 36.3508 48.874 37.4056 48.874 38.7069V72.87C48.874 74.1713 47.8191 75.2261 46.5179 75.2261H19.8571C18.5559 75.2261 17.501 74.1713 17.501 72.87V55.7884V46.0696V38.7067C17.501 37.4056 18.5558 36.3508 19.857 36.3508Z" fill="url(#paint6_linear_62_48)"/>
<path fill-rule="evenodd" clip-rule="evenodd" d="M21.0463 38.7068H45.3282C45.9788 38.7068 46.5062 39.2343 46.5062 39.8849V71.692C46.5062 72.3426 45.9788 72.87 45.3282 72.87H21.0469C20.3962 72.87 19.8688 72.3426 19.8688 71.692V46.203V39.8843C19.8688 39.234 20.396 38.7068 21.0463 38.7068Z" fill="url(#paint7_linear_62_48)"/>
<path d="M21.4823 45.7649H16.3301C15.6834 45.7649 15.1592 46.2891 15.1592 46.9358C15.1592 47.5825 15.6834 48.1068 16.3301 48.1068H21.4823C22.1289 48.1068 22.6532 47.5825 22.6532 46.9358C22.6532 46.2891 22.1289 45.7649 21.4823 45.7649Z" fill="#0E47FE"/>
<path d="M8.81675 71.6837C8.52363 71.9768 8.73085 72.6593 9.27959 73.208C9.82833 73.7567 10.5108 73.964 10.8039 73.6708L15.7575 68.7173C16.0506 68.4241 15.8434 67.7417 15.2947 67.1929C14.7459 66.6442 14.0635 66.437 13.7703 66.7301L8.81675 71.6837Z" fill="url(#paint8_linear_62_48)"/>
<path d="M21.4823 54.1957H16.3301C15.6834 54.1957 15.1592 54.7199 15.1592 55.3666C15.1592 56.0133 15.6834 56.5376 16.3301 56.5376H21.4823C22.1289 56.5376 22.6532 56.0133 22.6532 55.3666C22.6532 54.7199 22.1289 54.1957 21.4823 54.1957Z" fill="#0E47FE"/>
<path d="M21.4823 63.0949H16.3301C15.6834 63.0949 15.1592 63.6191 15.1592 64.2658C15.1592 64.9125 15.6834 65.4368 16.3301 65.4368H21.4823C22.1289 65.4368 22.6532 64.9125 22.6532 64.2658C22.6532 63.6191 22.1289 63.0949 21.4823 63.0949Z" fill="#0E47FE"/>
<path fill-rule="evenodd" clip-rule="evenodd" d="M33.3088 47.6384C35.7016 47.6384 37.6413 49.7354 37.6413 52.3222C37.6413 52.6671 37.6068 53.0366 37.5414 53.418L37.5154 53.5616L37.4804 53.7351L37.4414 53.9098C37.3457 54.3185 37.2176 54.7344 37.061 55.1427L36.9922 55.3172L36.9199 55.4906C36.8553 55.6417 36.7868 55.7911 36.7146 55.9381L36.6413 56.0843L36.5546 56.2492C36.2606 56.7946 35.9162 57.0261 35.5336 57.4423V58.0243C35.5336 58.2334 35.6722 58.4172 35.8733 58.4747L39.4743 59.5035C40.6072 59.8272 41.3883 60.8627 41.3883 62.041C41.3883 63.1404 40.4971 64.0316 39.3977 64.0316H26.9857C25.8863 64.0316 24.9951 63.1404 24.9951 62.041C24.9951 60.8627 25.7762 59.8272 26.9091 59.5035L30.5102 58.4746C30.7112 58.4172 30.8498 58.2334 30.8499 58.0244L30.85 57.4423C30.5784 57.1083 30.3292 56.732 30.1074 56.3306L30.0629 56.2492L29.9762 56.0843C29.9017 55.939 29.8308 55.791 29.7636 55.6411L29.6976 55.4906L29.6254 55.3172C29.4608 54.9113 29.324 54.4958 29.2192 54.0853L29.1762 53.9098L29.1372 53.7351L29.1022 53.5616C29.0199 53.1293 28.9763 52.7102 28.9763 52.3222C28.9763 49.7354 30.916 47.6384 33.3088 47.6384Z" fill="url(#paint9_linear_62_48)"/>
</g>
<defs>
<linearGradient id="paint0_linear_62_48" x1="23.1535" y1="17.3035" x2="23.9519" y2="24.7005" gradientUnits="userSpaceOnUse">
<stop stop-color="#0E47FE" stop-opacity="0.67"/>
<stop offset="1" stop-color="#0E47FE"/>
</linearGradient>
<linearGradient id="paint1_linear_62_48" x1="27.1661" y1="15.7275" x2="26.4543" y2="24.6875" gradientUnits="userSpaceOnUse">
<stop stop-color="#0E47FE" stop-opacity="0.63"/>
<stop offset="1" stop-color="#0E47FE"/>
</linearGradient>
<linearGradient id="paint2_linear_62_48" x1="73.9624" y1="46.0015" x2="73.9624" y2="25.8191" gradientUnits="userSpaceOnUse">
<stop stop-color="#0E47FE" stop-opacity="0"/>
<stop offset="1" stop-color="#0E47FE"/>
</linearGradient>
<linearGradient id="paint3_linear_62_48" x1="19.9812" y1="83.0007" x2="19.9812" y2="72.9095" gradientUnits="userSpaceOnUse">
<stop stop-color="#0E47FE" stop-opacity="0"/>
<stop offset="1" stop-color="#0E47FE"/>
</linearGradient>
<linearGradient id="paint4_linear_62_48" x1="30.7913" y1="83.8943" x2="52.9191" y2="61.2468" gradientUnits="userSpaceOnUse">
<stop stop-color="#EEEEEE" stop-opacity="0.19813"/>
<stop offset="1" stop-color="#0E47FE"/>
</linearGradient>
<linearGradient id="paint5_linear_62_48" x1="27.345" y1="41.5789" x2="39.9304" y2="28.9936" gradientUnits="userSpaceOnUse">
<stop stop-color="#EEEEEE" stop-opacity="0.2"/>
<stop offset="1" stop-color="#0E47FE"/>
</linearGradient>
<linearGradient id="paint6_linear_62_48" x1="24.3535" y1="36.3508" x2="45.5903" y2="69.3453" gradientUnits="userSpaceOnUse">
<stop stop-color="#0E47FE"/>
<stop offset="1" stop-color="#E0E8FF"/>
</linearGradient>
<linearGradient id="paint7_linear_62_48" x1="33.1875" y1="38.7068" x2="33.1875" y2="72.87" gradientUnits="userSpaceOnUse">
<stop stop-color="#5B82FF"/>
<stop offset="1" stop-color="white"/>
</linearGradient>
<linearGradient id="paint8_linear_62_48" x1="9.27959" y1="73.208" x2="15.2947" y2="67.1929" gradientUnits="userSpaceOnUse">
<stop stop-color="#EEEEEE" stop-opacity="0.2"/>
<stop offset="1" stop-color="#0E47FE"/>
</linearGradient>
<linearGradient id="paint9_linear_62_48" x1="33.1917" y1="47.6384" x2="33.1917" y2="64.0316" gradientUnits="userSpaceOnUse">
<stop stop-color="#0E47FE"/>
<stop offset="1" stop-color="#0E47FE" stop-opacity="0.29"/>
</linearGradient>
</defs>
</svg>
