<svg width="107" height="107" viewBox="0 0 107 107" fill="none" xmlns="http://www.w3.org/2000/svg">
<g opacity="0.47">
<g opacity="0.8">
<path opacity="0.331" d="M53.5 88.8397C61.6255 88.8397 68.2125 88.1744 68.2125 87.3536C68.2125 86.5328 61.6255 85.8675 53.5 85.8675C45.3745 85.8675 38.7875 86.5328 38.7875 87.3536C38.7875 88.1744 45.3745 88.8397 53.5 88.8397Z" fill="url(#paint0_linear_24_154)"/>
<g opacity="0.7794">
<path opacity="0.5988" d="M16.7079 68.6756C17.66 68.6756 18.4318 68.4361 18.4318 68.1406C18.4318 67.8451 17.66 67.6056 16.7079 67.6056C15.7558 67.6056 14.984 67.8451 14.984 68.1406C14.984 68.4361 15.7558 68.6756 16.7079 68.6756Z" fill="#0E47FE" fill-opacity="0.51"/>
<path opacity="0.5765" d="M15.1921 68.1406C15.6676 68.3487 17.986 64.7225 18.3129 63.7714C18.6399 62.8203 18.2832 61.7503 17.5104 61.4234C16.7376 61.0964 15.846 61.6017 15.519 62.5825C15.1921 63.5634 14.6868 67.9325 15.1921 68.1406Z" fill="url(#paint1_linear_24_154)"/>
<path d="M15.2812 68.1406C15.8757 67.9623 15.7865 62.8203 15.4893 61.6612C15.1921 60.502 14.2112 59.7887 13.2601 60.0562C12.309 60.3237 11.8037 61.4828 12.0712 62.642C12.3387 63.8012 14.6868 68.3189 15.2812 68.1406Z" fill="url(#paint2_linear_24_154)"/>
</g>
<path opacity="0.7" d="M22.1975 28C22 28 21.8025 28 21.6049 27.9524C21.358 28 21.1111 28 20.8642 28C17.0617 28 14 25.0476 14 21.3333C14 17.619 17.0617 14.7143 20.8642 14.7143C21.3086 14.7143 21.7531 14.7619 22.1481 14.8095C23.7284 11.9524 26.8395 10 30.4444 10C35.5802 10 39.7778 14.0476 39.7778 19H45.358C47.9259 19 50 21 50 23.4762C50 25.9524 47.9259 28 45.358 28H22.1975Z" fill="url(#paint3_linear_24_154)"/>
<path d="M10.7 79.18C15.3367 72.3736 19.795 68.9556 24.0156 68.9556C28.2361 68.9556 33.0808 72.3736 38.52 79.18H10.7Z" fill="url(#paint4_linear_24_154)"/>
<path d="M27.1661 79.18C32.0703 69.9067 37.3311 65.27 42.9189 65.27C48.5067 65.27 58.6717 69.9067 73.4139 79.18H27.1661Z" fill="url(#paint5_linear_24_154)"/>
<path d="M96.3 79.18C91.1878 71.9278 86.3431 68.3017 81.8253 68.3017C77.3075 68.3017 69.9958 71.9278 59.92 79.18H96.3Z" fill="url(#paint6_linear_24_154)"/>
<path opacity="0.6699" d="M80.25 59.385C80.9887 59.385 81.5875 59.1987 81.5875 58.9689C81.5875 58.7391 80.9887 58.5528 80.25 58.5528C79.5113 58.5528 78.9125 58.7391 78.9125 58.9689C78.9125 59.1987 79.5113 59.385 80.25 59.385Z" fill="#0E47FE" fill-opacity="0.28"/>
<path opacity="0.5765" d="M79.0908 58.9689C79.4772 59.1175 81.2308 56.5317 81.4983 55.848C81.7658 55.1644 81.4686 54.4214 80.9039 54.1836C80.3392 53.9458 79.6258 54.3322 79.3583 55.0158C79.0908 55.6697 78.7342 58.8203 79.0908 58.9689Z" fill="url(#paint7_linear_24_154)"/>
<path d="M79.0314 58.9689C79.5069 58.85 79.4178 55.2239 79.2097 54.4214C79.0017 53.6189 78.1992 53.0839 77.4858 53.2622C76.7725 53.4406 76.3564 54.2728 76.5644 55.0753C76.7725 55.8778 78.5856 59.0878 79.0314 58.9689Z" fill="url(#paint8_linear_24_154)"/>
<g opacity="0.8969">
<path opacity="0.5969" d="M84.5003 88.275C85.4688 88.275 86.2539 88.0355 86.2539 87.74C86.2539 87.4445 85.4688 87.205 84.5003 87.205C83.5318 87.205 82.7467 87.4445 82.7467 87.74C82.7467 88.0355 83.5318 88.275 84.5003 88.275Z" fill="#0E47FE" fill-opacity="0.45"/>
<path opacity="0.5765" d="M83.2519 87.8292C83.8761 88.0669 86.8781 83.6978 87.3239 82.5386C87.7697 81.3794 87.2942 80.1014 86.2836 79.715C85.2731 79.3286 84.1139 79.9528 83.6681 81.1119C83.2222 82.2711 82.6278 87.5914 83.2519 87.8292Z" fill="url(#paint9_linear_24_154)"/>
<path d="M83.2519 87.8589C84.0544 87.6508 83.9356 81.4983 83.5492 80.1311C83.1628 78.7639 81.8253 77.8425 80.5769 78.1694C79.3286 78.4964 78.645 79.8933 79.0314 81.2903C79.4178 82.6872 82.4494 88.067 83.2519 87.8589Z" fill="url(#paint10_linear_24_154)"/>
</g>
<path d="M36.1801 39H56.3558C58.9909 39 61.1468 41.156 61.1468 43.7911V70.1685C61.1468 75.4653 56.8615 79.7506 51.5647 79.7506H31.3891V43.7911C31.3891 41.156 33.5184 39 36.1801 39Z" fill="url(#paint11_linear_24_154)"/>
<path d="M36.1801 39.7187H56.3558C58.9909 39.7187 61.1468 41.8746 61.1468 44.5097V70.1685C61.1468 75.4653 56.8615 79.7506 51.5647 79.7506H31.3891V44.5097C31.3891 41.8746 33.5184 39.7187 36.1801 39.7187Z" fill="url(#paint12_linear_24_154)"/>
<path d="M28.0886 54.7573H31.3891V79.7506H28.0886C25.4535 79.7506 23.2975 77.5946 23.2975 74.9595V59.5483C23.2975 56.9132 25.4535 54.7573 28.0886 54.7573Z" fill="url(#paint13_linear_24_154)"/>
<path d="M36.3787 41.3066H56.1551C57.7521 41.3066 59.0298 42.5842 59.0298 44.1813V69.3077C59.0298 73.806 55.3832 77.4525 50.885 77.4525H33.5041V44.1813C33.5041 42.5842 34.7817 41.3066 36.3787 41.3066Z" fill="url(#paint14_linear_24_154)"/>
<path d="M36.3787 42.0253H56.1551C57.7521 42.0253 59.0297 43.3029 59.0297 44.8999V70.0264C59.0297 74.5246 55.3832 78.1712 50.885 78.1712H33.5041V44.8999C33.5041 43.3029 34.7817 42.0253 36.3787 42.0253Z" fill="url(#paint15_linear_24_154)"/>
<path opacity="0.5973" d="M39.1346 46.6923H55.2113C55.9565 46.6923 56.5687 47.3045 56.5687 48.0498C56.5687 48.7951 55.9565 49.4073 55.2113 49.4073H39.1346C38.3893 49.4073 37.7771 48.7951 37.7771 48.0498C37.8038 47.2779 38.3893 46.6923 39.1346 46.6923Z" fill="url(#paint16_linear_24_154)"/>
<path opacity="0.5973" d="M39.1346 52.4682H55.2113C55.9565 52.4682 56.5687 53.0804 56.5687 53.8257C56.5687 54.5709 55.9565 55.1831 55.2113 55.1831H39.1346C38.3893 55.1831 37.7771 54.5709 37.7771 53.8257C37.8038 53.0538 38.3893 52.4682 39.1346 52.4682Z" fill="url(#paint17_linear_24_154)"/>
<path opacity="0.5973" d="M39.1346 58.2175H46.5874C47.3326 58.2175 47.9448 58.8297 47.9448 59.5749C47.9448 60.3202 47.3326 60.9324 46.5874 60.9324H39.1346C38.3893 60.9324 37.7771 60.3202 37.7771 59.5749C37.8038 58.8297 38.3893 58.2175 39.1346 58.2175Z" fill="url(#paint18_linear_24_154)"/>
<g filter="url(#filter0_d_24_154)">
<path d="M28.0886 54.7619H31.3891V75.7094C31.3891 77.9452 29.5791 79.7552 27.3433 79.7552C25.1075 79.7552 23.2975 77.9452 23.2975 75.7094V59.5529C23.2975 56.9178 25.4535 54.7619 28.0886 54.7619Z" fill="url(#paint19_linear_24_154)" shape-rendering="crispEdges"/>
</g>
<path d="M42.4125 60.7443C46.059 57.0978 51.9414 57.0978 55.5879 60.7443C59.2344 64.3908 59.2344 70.2732 55.5879 73.8931C51.9414 77.513 46.059 77.5396 42.4125 73.8931C38.766 70.2466 38.7926 64.3908 42.4125 60.7443ZM43.7433 62.0751C40.8421 64.9764 40.8421 69.6876 43.7433 72.5888C46.6446 75.4901 51.3558 75.4901 54.2837 72.5888C57.2115 69.6876 57.1849 64.9764 54.2837 62.0751C51.3824 59.1739 46.6446 59.1739 43.7433 62.0751Z" fill="url(#paint20_linear_24_154)"/>
<path d="M55.9073 72.9348L57.5575 74.5851L57.7172 74.4254C58.01 74.1326 58.4625 74.1326 58.7287 74.4254L65.8354 81.5321C66.1016 81.7983 66.1282 82.2242 65.862 82.517L65.8354 82.5436L64.2118 84.1672C63.919 84.46 63.4665 84.46 63.2003 84.1672L56.0936 77.0605C55.8274 76.7943 55.8008 76.3684 56.067 76.0756L56.0936 76.049L56.2533 75.8893L54.6031 74.2391L55.9073 72.9348Z" fill="url(#paint21_linear_24_154)"/>
<path d="M49.0135 74.798C53.1295 74.798 56.4662 71.4613 56.4662 67.3453C56.4662 63.2292 53.1295 59.8925 49.0135 59.8925C44.8974 59.8925 41.5607 63.2292 41.5607 67.3453C41.5607 71.4613 44.8974 74.798 49.0135 74.798Z" fill="url(#paint22_linear_24_154)"/>
</g>
</g>
<defs>
<filter id="filter0_d_24_154" x="19.2975" y="54.7619" width="16.0916" height="32.9933" filterUnits="userSpaceOnUse" color-interpolation-filters="sRGB">
<feFlood flood-opacity="0" result="BackgroundImageFix"/>
<feColorMatrix in="SourceAlpha" type="matrix" values="0 0 0 0 0 0 0 0 0 0 0 0 0 0 0 0 0 0 127 0" result="hardAlpha"/>
<feOffset dy="4"/>
<feGaussianBlur stdDeviation="2"/>
<feComposite in2="hardAlpha" operator="out"/>
<feColorMatrix type="matrix" values="0 0 0 0 0 0 0 0 0 0 0 0 0 0 0 0 0 0 0.25 0"/>
<feBlend mode="normal" in2="BackgroundImageFix" result="effect1_dropShadow_24_154"/>
<feBlend mode="normal" in="SourceGraphic" in2="effect1_dropShadow_24_154" result="shape"/>
</filter>
<linearGradient id="paint0_linear_24_154" x1="74.3745" y1="87.3386" x2="31.4169" y2="87.3386" gradientUnits="userSpaceOnUse">
<stop stop-color="#0E47FE" stop-opacity="0"/>
<stop offset="1" stop-color="#0E47FE"/>
</linearGradient>
<linearGradient id="paint1_linear_24_154" x1="16.7646" y1="61.9892" x2="16.2318" y2="68.1203" gradientUnits="userSpaceOnUse">
<stop stop-color="#0E47FE" stop-opacity="0.74"/>
<stop offset="1" stop-color="#0E47FE" stop-opacity="0.48"/>
</linearGradient>
<linearGradient id="paint2_linear_24_154" x1="13.8334" y1="60.61" x2="14.2682" y2="68.1139" gradientUnits="userSpaceOnUse">
<stop stop-color="#0E47FE" stop-opacity="0.56"/>
<stop offset="1" stop-color="#0E47FE" stop-opacity="0.4"/>
</linearGradient>
<linearGradient id="paint3_linear_24_154" x1="31.9517" y1="28.0019" x2="31.9517" y2="2.05311" gradientUnits="userSpaceOnUse">
<stop stop-color="#0E47FE" stop-opacity="0"/>
<stop offset="1" stop-color="#0E47FE"/>
</linearGradient>
<linearGradient id="paint4_linear_24_154" x1="24.6086" y1="79.1431" x2="24.6086" y2="69.2497" gradientUnits="userSpaceOnUse">
<stop stop-color="#0E47FE" stop-opacity="0"/>
<stop offset="1" stop-color="#0E47FE" stop-opacity="0.61"/>
</linearGradient>
<linearGradient id="paint5_linear_24_154" x1="50.2906" y1="79.139" x2="50.2906" y2="65.6671" gradientUnits="userSpaceOnUse">
<stop stop-color="#0E47FE" stop-opacity="0"/>
<stop offset="1" stop-color="#0E47FE" stop-opacity="0.56"/>
</linearGradient>
<linearGradient id="paint6_linear_24_154" x1="78.1089" y1="79.1796" x2="78.1089" y2="68.3124" gradientUnits="userSpaceOnUse">
<stop offset="0.00290329" stop-color="#0E47FE" stop-opacity="0"/>
<stop offset="0.9798" stop-color="#0E47FE" stop-opacity="0.53"/>
</linearGradient>
<linearGradient id="paint7_linear_24_154" x1="80.3316" y1="54.5686" x2="79.8615" y2="58.939" gradientUnits="userSpaceOnUse">
<stop stop-color="#0E47FE" stop-opacity="0.5"/>
<stop offset="1" stop-color="#0E47FE" stop-opacity="0"/>
</linearGradient>
<linearGradient id="paint8_linear_24_154" x1="77.9125" y1="53.6589" x2="78.3217" y2="58.9291" gradientUnits="userSpaceOnUse">
<stop stop-color="#0E47FE" stop-opacity="0.33"/>
<stop offset="1" stop-color="#0E47FE" stop-opacity="0"/>
</linearGradient>
<linearGradient id="paint9_linear_24_154" x1="85.3381" y1="80.4068" x2="84.5397" y2="87.8038" gradientUnits="userSpaceOnUse">
<stop stop-color="#0E47FE" stop-opacity="0.67"/>
<stop offset="1" stop-color="#0E47FE"/>
</linearGradient>
<linearGradient id="paint10_linear_24_154" x1="81.3255" y1="78.8308" x2="82.0374" y2="87.7908" gradientUnits="userSpaceOnUse">
<stop stop-color="#0E47FE" stop-opacity="0.63"/>
<stop offset="1" stop-color="#0E47FE" stop-opacity="0"/>
</linearGradient>
<linearGradient id="paint11_linear_24_154" x1="46.2626" y1="39.0059" x2="46.2626" y2="79.756" gradientUnits="userSpaceOnUse">
<stop stop-color="#F5F6F6"/>
<stop offset="1" stop-color="#0E47FE"/>
</linearGradient>
<linearGradient id="paint12_linear_24_154" x1="46.2627" y1="39.7246" x2="46.2627" y2="79.7561" gradientUnits="userSpaceOnUse">
<stop stop-color="#0E47FE" stop-opacity="0.19"/>
<stop offset="1" stop-color="#0E47FE" stop-opacity="0"/>
</linearGradient>
<linearGradient id="paint13_linear_24_154" x1="27.3379" y1="54.7657" x2="27.3379" y2="79.754" gradientUnits="userSpaceOnUse">
<stop stop-color="#0E47FE" stop-opacity="0.09"/>
<stop offset="1" stop-color="#0E47FE" stop-opacity="0"/>
</linearGradient>
<linearGradient id="paint14_linear_24_154" x1="46.2529" y1="41.472" x2="46.2529" y2="76.9223" gradientUnits="userSpaceOnUse">
<stop stop-color="#0E47FE" stop-opacity="0.61"/>
<stop offset="1" stop-color="#0E47FE"/>
</linearGradient>
<linearGradient id="paint15_linear_24_154" x1="46.2529" y1="42.1915" x2="46.2529" y2="77.6418" gradientUnits="userSpaceOnUse">
<stop stop-color="white"/>
<stop offset="1" stop-color="#86A2FB"/>
</linearGradient>
<linearGradient id="paint16_linear_24_154" x1="56.5584" y1="48.0498" x2="38.9067" y2="48.0145" gradientUnits="userSpaceOnUse">
<stop stop-color="#0E47FE"/>
<stop offset="1" stop-color="#0E47FE"/>
</linearGradient>
<linearGradient id="paint17_linear_24_154" x1="56.5584" y1="53.8254" x2="38.9067" y2="53.7902" gradientUnits="userSpaceOnUse">
<stop stop-color="#0E47FE"/>
<stop offset="1" stop-color="#0E47FE"/>
</linearGradient>
<linearGradient id="paint18_linear_24_154" x1="47.9394" y1="59.5787" x2="38.3934" y2="59.4584" gradientUnits="userSpaceOnUse">
<stop stop-color="#0E47FE"/>
<stop offset="1" stop-color="#0E47FE"/>
</linearGradient>
<linearGradient id="paint19_linear_24_154" x1="27.3433" y1="54.7619" x2="27.3433" y2="79.7552" gradientUnits="userSpaceOnUse">
<stop stop-color="#0E47FE" stop-opacity="0"/>
<stop offset="1" stop-color="#0E47FE" stop-opacity="0.35"/>
</linearGradient>
<linearGradient id="paint20_linear_24_154" x1="48.9896" y1="58.0249" x2="48.9896" y2="76.6336" gradientUnits="userSpaceOnUse">
<stop stop-color="#ECECED"/>
<stop offset="1" stop-color="#0E47FE"/>
</linearGradient>
<linearGradient id="paint21_linear_24_154" x1="65.3708" y1="82.262" x2="54.5963" y2="74.9996" gradientUnits="userSpaceOnUse">
<stop stop-color="#0E47FE" stop-opacity="0.21"/>
<stop offset="1" stop-color="#0E47FE"/>
</linearGradient>
<linearGradient id="paint22_linear_24_154" x1="43.7746" y1="62.1178" x2="54.2583" y2="72.6015" gradientUnits="userSpaceOnUse">
<stop stop-color="#0E47FE" stop-opacity="0.65"/>
<stop offset="1" stop-color="#0E47FE" stop-opacity="0"/>
</linearGradient>
</defs>
</svg>
