<svg width="40" height="41" viewBox="0 0 40 41" fill="none" xmlns="http://www.w3.org/2000/svg">
<circle cx="20" cy="21" r="20" fill="#3F51B5" fill-opacity="0.1"/>
<path fill-rule="evenodd" clip-rule="evenodd" d="M13.0063 13H27.0063C28.6603 13 30.0063 14.346 30.0063 16V26C30.0063 27.654 28.6603 29 27.0063 29H13.0063C11.3523 29 10.0063 27.654 10.0063 26V16C10.0063 14.346 11.3523 13 13.0063 13ZM20.5013 19.468L27.0063 15H13.0063L19.5113 19.468C19.8183 19.643 20.1943 19.643 20.5013 19.468Z" fill="#3F51B5"/>
<mask id="mask0_161_164" style="mask-type:alpha" maskUnits="userSpaceOnUse" x="10" y="13" width="21" height="16">
<path fill-rule="evenodd" clip-rule="evenodd" d="M13.0063 13H27.0063C28.6603 13 30.0063 14.346 30.0063 16V26C30.0063 27.654 28.6603 29 27.0063 29H13.0063C11.3523 29 10.0063 27.654 10.0063 26V16C10.0063 14.346 11.3523 13 13.0063 13ZM20.5013 19.468L27.0063 15H13.0063L19.5113 19.468C19.8183 19.643 20.1943 19.643 20.5013 19.468Z" fill="white"/>
</mask>
<g mask="url(#mask0_161_164)">
</g>
</svg>
